# xmcd
#
# Track frame offsets:
# 150
# 12827
# 27160
# 42573
# 54666
# 65604
# 84981
# 97276
# 108314
# 123934
# 138457
#
# Disc length: 2062 seconds
#
#
# Revision: 0
# Processed by: cddbd v1.5.1PL0 Copyright (c) Steve Scherf et al.
# Submitted via: FreeRIP 2.91 
#
DISCID=95080c0b
DTITLE=Tab Gray - Tex Appeal
DYEAR=1999
DGENRE=Country
TTITLE0=Tex Appeal
TTITLE1=Don't Breathe a Word of This
TTITLE2=Old Fool
TTITLE3=Mr. Blues
TTITLE4=Teardrop Tavern
TTITLE5=Love Found a Way
TTITLE6=Two Steppin' to Double Time
TTITLE7=I'll Blaze a Trail
TTITLE8=Everything I Never Wanted
TTITLE9=I Don't Like the Sound of That
TTITLE10=Cowboy's Prayer
EXTD=
EXTT0=
EXTT1=
EXTT2=
EXTT3=
EXTT4=
EXTT5=
EXTT6=
EXTT7=
EXTT8=
EXTT9=
EXTT10=
PLAYORDER=
